<mxfile host="app.diagrams.net" agent="Mozilla/5.0 (Macintosh; Intel Mac OS X 10_15_7) AppleWebKit/537.36 (KHTML, like Gecko) Chrome/136.0.0.0 Safari/537.36" version="27.0.6">
  <diagram name="Page-1" id="hIJMs32q9IhrN0MSVE6C">
    <mxGraphModel dx="1261" dy="925" grid="1" gridSize="10" guides="1" tooltips="1" connect="1" arrows="1" fold="1" page="1" pageScale="1" pageWidth="850" pageHeight="1100" background="light-dark(#FFFFFF,#B491B0)" math="0" shadow="0">
      <root>
        <mxCell id="0" />
        <mxCell id="1" parent="0" />
        <mxCell id="-R5Bz8M_-OUZWPwnHFqf-5" value="" style="edgeStyle=orthogonalEdgeStyle;rounded=0;orthogonalLoop=1;jettySize=auto;html=1;" edge="1" parent="1" source="-R5Bz8M_-OUZWPwnHFqf-1" target="-R5Bz8M_-OUZWPwnHFqf-4">
          <mxGeometry relative="1" as="geometry" />
        </mxCell>
        <mxCell id="-R5Bz8M_-OUZWPwnHFqf-1" value="DOCUMENT" style="rounded=1;whiteSpace=wrap;html=1;" vertex="1" parent="1">
          <mxGeometry x="280" y="20" width="120" height="60" as="geometry" />
        </mxCell>
        <mxCell id="-R5Bz8M_-OUZWPwnHFqf-7" value="" style="edgeStyle=orthogonalEdgeStyle;rounded=0;orthogonalLoop=1;jettySize=auto;html=1;" edge="1" parent="1" source="-R5Bz8M_-OUZWPwnHFqf-4">
          <mxGeometry relative="1" as="geometry">
            <mxPoint x="100" y="300" as="targetPoint" />
          </mxGeometry>
        </mxCell>
        <mxCell id="-R5Bz8M_-OUZWPwnHFqf-9" value="" style="edgeStyle=orthogonalEdgeStyle;rounded=0;orthogonalLoop=1;jettySize=auto;html=1;entryX=0.5;entryY=0;entryDx=0;entryDy=0;" edge="1" parent="1" source="-R5Bz8M_-OUZWPwnHFqf-4" target="-R5Bz8M_-OUZWPwnHFqf-11">
          <mxGeometry relative="1" as="geometry">
            <mxPoint x="600" y="270" as="targetPoint" />
          </mxGeometry>
        </mxCell>
        <mxCell id="-R5Bz8M_-OUZWPwnHFqf-4" value="HTML" style="whiteSpace=wrap;html=1;rounded=1;" vertex="1" parent="1">
          <mxGeometry x="280" y="160" width="120" height="60" as="geometry" />
        </mxCell>
        <mxCell id="-R5Bz8M_-OUZWPwnHFqf-15" value="" style="edgeStyle=orthogonalEdgeStyle;rounded=0;orthogonalLoop=1;jettySize=auto;html=1;" edge="1" parent="1" source="-R5Bz8M_-OUZWPwnHFqf-10" target="-R5Bz8M_-OUZWPwnHFqf-14">
          <mxGeometry relative="1" as="geometry" />
        </mxCell>
        <mxCell id="-R5Bz8M_-OUZWPwnHFqf-10" value="HEAD" style="rounded=1;whiteSpace=wrap;html=1;" vertex="1" parent="1">
          <mxGeometry x="40" y="300" width="120" height="60" as="geometry" />
        </mxCell>
        <mxCell id="-R5Bz8M_-OUZWPwnHFqf-25" value="" style="edgeStyle=orthogonalEdgeStyle;rounded=0;orthogonalLoop=1;jettySize=auto;html=1;" edge="1" parent="1" source="-R5Bz8M_-OUZWPwnHFqf-11" target="-R5Bz8M_-OUZWPwnHFqf-24">
          <mxGeometry relative="1" as="geometry" />
        </mxCell>
        <mxCell id="-R5Bz8M_-OUZWPwnHFqf-29" value="" style="edgeStyle=orthogonalEdgeStyle;rounded=0;orthogonalLoop=1;jettySize=auto;html=1;" edge="1" parent="1" source="-R5Bz8M_-OUZWPwnHFqf-11" target="-R5Bz8M_-OUZWPwnHFqf-28">
          <mxGeometry relative="1" as="geometry" />
        </mxCell>
        <mxCell id="-R5Bz8M_-OUZWPwnHFqf-11" value="BODY" style="rounded=1;whiteSpace=wrap;html=1;" vertex="1" parent="1">
          <mxGeometry x="540" y="300" width="120" height="60" as="geometry" />
        </mxCell>
        <mxCell id="-R5Bz8M_-OUZWPwnHFqf-33" value="" style="edgeStyle=orthogonalEdgeStyle;rounded=0;orthogonalLoop=1;jettySize=auto;html=1;" edge="1" parent="1" source="-R5Bz8M_-OUZWPwnHFqf-14" target="-R5Bz8M_-OUZWPwnHFqf-18">
          <mxGeometry relative="1" as="geometry" />
        </mxCell>
        <mxCell id="-R5Bz8M_-OUZWPwnHFqf-14" value="TITLE" style="whiteSpace=wrap;html=1;rounded=1;" vertex="1" parent="1">
          <mxGeometry x="40" y="440" width="120" height="60" as="geometry" />
        </mxCell>
        <mxCell id="-R5Bz8M_-OUZWPwnHFqf-18" value="GUESS THE COLOR GAME" style="whiteSpace=wrap;html=1;rounded=1;" vertex="1" parent="1">
          <mxGeometry x="40" y="540" width="120" height="60" as="geometry" />
        </mxCell>
        <mxCell id="-R5Bz8M_-OUZWPwnHFqf-27" value="" style="edgeStyle=orthogonalEdgeStyle;rounded=0;orthogonalLoop=1;jettySize=auto;html=1;" edge="1" parent="1" source="-R5Bz8M_-OUZWPwnHFqf-24" target="-R5Bz8M_-OUZWPwnHFqf-26">
          <mxGeometry relative="1" as="geometry" />
        </mxCell>
        <mxCell id="-R5Bz8M_-OUZWPwnHFqf-24" value="HEADER" style="whiteSpace=wrap;html=1;rounded=1;" vertex="1" parent="1">
          <mxGeometry x="365" y="420" width="120" height="60" as="geometry" />
        </mxCell>
        <mxCell id="-R5Bz8M_-OUZWPwnHFqf-35" value="" style="edgeStyle=orthogonalEdgeStyle;rounded=0;orthogonalLoop=1;jettySize=auto;html=1;" edge="1" parent="1" source="-R5Bz8M_-OUZWPwnHFqf-26" target="-R5Bz8M_-OUZWPwnHFqf-34">
          <mxGeometry relative="1" as="geometry" />
        </mxCell>
        <mxCell id="-R5Bz8M_-OUZWPwnHFqf-26" value="H1" style="whiteSpace=wrap;html=1;rounded=1;" vertex="1" parent="1">
          <mxGeometry x="365" y="560" width="120" height="60" as="geometry" />
        </mxCell>
        <mxCell id="-R5Bz8M_-OUZWPwnHFqf-31" value="" style="edgeStyle=orthogonalEdgeStyle;rounded=0;orthogonalLoop=1;jettySize=auto;html=1;" edge="1" parent="1" source="-R5Bz8M_-OUZWPwnHFqf-28" target="-R5Bz8M_-OUZWPwnHFqf-30">
          <mxGeometry relative="1" as="geometry" />
        </mxCell>
        <mxCell id="-R5Bz8M_-OUZWPwnHFqf-37" value="" style="edgeStyle=orthogonalEdgeStyle;rounded=0;orthogonalLoop=1;jettySize=auto;html=1;" edge="1" parent="1" source="-R5Bz8M_-OUZWPwnHFqf-28" target="-R5Bz8M_-OUZWPwnHFqf-36">
          <mxGeometry relative="1" as="geometry" />
        </mxCell>
        <mxCell id="-R5Bz8M_-OUZWPwnHFqf-41" value="" style="edgeStyle=orthogonalEdgeStyle;rounded=0;orthogonalLoop=1;jettySize=auto;html=1;" edge="1" parent="1" source="-R5Bz8M_-OUZWPwnHFqf-28" target="-R5Bz8M_-OUZWPwnHFqf-40">
          <mxGeometry relative="1" as="geometry" />
        </mxCell>
        <mxCell id="-R5Bz8M_-OUZWPwnHFqf-28" value="MAIN" style="whiteSpace=wrap;html=1;rounded=1;" vertex="1" parent="1">
          <mxGeometry x="690" y="410" width="120" height="60" as="geometry" />
        </mxCell>
        <mxCell id="-R5Bz8M_-OUZWPwnHFqf-30" value="DIV-1" style="whiteSpace=wrap;html=1;rounded=1;" vertex="1" parent="1">
          <mxGeometry x="560" y="490" width="120" height="60" as="geometry" />
        </mxCell>
        <mxCell id="-R5Bz8M_-OUZWPwnHFqf-34" value="P" style="whiteSpace=wrap;html=1;rounded=1;" vertex="1" parent="1">
          <mxGeometry x="365" y="700" width="120" height="60" as="geometry" />
        </mxCell>
        <mxCell id="-R5Bz8M_-OUZWPwnHFqf-36" value="DIV-2" style="whiteSpace=wrap;html=1;rounded=1;" vertex="1" parent="1">
          <mxGeometry x="697" y="490" width="120" height="60" as="geometry" />
        </mxCell>
        <mxCell id="-R5Bz8M_-OUZWPwnHFqf-40" value="SCRIPT" style="whiteSpace=wrap;html=1;rounded=1;" vertex="1" parent="1">
          <mxGeometry x="840" y="490" width="120" height="60" as="geometry" />
        </mxCell>
      </root>
    </mxGraphModel>
  </diagram>
</mxfile>
